<mxfile host="app.diagrams.net" modified="2023-05-12T18:57:18.665Z" agent="Mozilla/5.0 (Windows NT 10.0; Win64; x64) AppleWebKit/537.36 (KHTML, like Gecko) Chrome/112.0.0.0 Safari/537.36 Edg/112.0.1722.68" etag="9TCrn_TuhTTOlT3_ELu5" version="21.2.9" type="github">
  <diagram name="페이지-1" id="I0X-XL46i2vq7MJgRz23">
    <mxGraphModel dx="1006" dy="559" grid="1" gridSize="10" guides="1" tooltips="1" connect="1" arrows="1" fold="1" page="1" pageScale="1" pageWidth="827" pageHeight="1169" math="0" shadow="0">
      <root>
        <mxCell id="0" />
        <mxCell id="1" parent="0" />
        <mxCell id="QFTJO6hWE16CWzXZC9yU-1" value="고객 관리" style="rounded=0;whiteSpace=wrap;html=1;" parent="1" vertex="1">
          <mxGeometry x="160" y="430" width="120" height="60" as="geometry" />
        </mxCell>
        <mxCell id="QFTJO6hWE16CWzXZC9yU-2" value="제품 관리" style="rounded=0;whiteSpace=wrap;html=1;" parent="1" vertex="1">
          <mxGeometry x="160" y="80" width="120" height="60" as="geometry" />
        </mxCell>
        <mxCell id="QFTJO6hWE16CWzXZC9yU-3" value="주문 관리" style="rhombus;whiteSpace=wrap;html=1;" parent="1" vertex="1">
          <mxGeometry x="180" y="245" width="80" height="80" as="geometry" />
        </mxCell>
        <mxCell id="QFTJO6hWE16CWzXZC9yU-5" value="제품 ID" style="ellipse;whiteSpace=wrap;html=1;" parent="1" vertex="1">
          <mxGeometry x="90" y="30" width="80" height="50" as="geometry" />
        </mxCell>
        <mxCell id="QFTJO6hWE16CWzXZC9yU-6" value="제품명" style="ellipse;whiteSpace=wrap;html=1;" parent="1" vertex="1">
          <mxGeometry x="70" y="90" width="80" height="50" as="geometry" />
        </mxCell>
        <mxCell id="QFTJO6hWE16CWzXZC9yU-7" value="제품 가격" style="ellipse;whiteSpace=wrap;html=1;" parent="1" vertex="1">
          <mxGeometry x="80" y="150" width="80" height="50" as="geometry" />
        </mxCell>
        <mxCell id="QFTJO6hWE16CWzXZC9yU-8" value="주문 ID" style="ellipse;whiteSpace=wrap;html=1;" parent="1" vertex="1">
          <mxGeometry x="250" y="210" width="80" height="50" as="geometry" />
        </mxCell>
        <mxCell id="QFTJO6hWE16CWzXZC9yU-9" value="주문 수량" style="ellipse;whiteSpace=wrap;html=1;" parent="1" vertex="1">
          <mxGeometry x="280" y="270" width="80" height="50" as="geometry" />
        </mxCell>
        <mxCell id="QFTJO6hWE16CWzXZC9yU-11" value="배송 주소" style="ellipse;whiteSpace=wrap;html=1;" parent="1" vertex="1">
          <mxGeometry x="240" y="325" width="80" height="50" as="geometry" />
        </mxCell>
        <mxCell id="QFTJO6hWE16CWzXZC9yU-12" value="결제 방법" style="ellipse;whiteSpace=wrap;html=1;" parent="1" vertex="1">
          <mxGeometry x="330" y="220" width="80" height="50" as="geometry" />
        </mxCell>
        <mxCell id="QFTJO6hWE16CWzXZC9yU-13" value="총 가격" style="ellipse;whiteSpace=wrap;html=1;" parent="1" vertex="1">
          <mxGeometry x="330" y="325" width="80" height="50" as="geometry" />
        </mxCell>
        <mxCell id="QFTJO6hWE16CWzXZC9yU-14" value="고객&amp;nbsp;ID" style="ellipse;whiteSpace=wrap;html=1;" parent="1" vertex="1">
          <mxGeometry x="70" y="440" width="80" height="50" as="geometry" />
        </mxCell>
        <mxCell id="QFTJO6hWE16CWzXZC9yU-15" value="고객&amp;nbsp;PW" style="ellipse;whiteSpace=wrap;html=1;" parent="1" vertex="1">
          <mxGeometry x="110" y="500" width="80" height="50" as="geometry" />
        </mxCell>
        <mxCell id="QFTJO6hWE16CWzXZC9yU-16" value="고객&amp;nbsp;이름" style="ellipse;whiteSpace=wrap;html=1;" parent="1" vertex="1">
          <mxGeometry x="80" y="380" width="80" height="50" as="geometry" />
        </mxCell>
        <mxCell id="QFTJO6hWE16CWzXZC9yU-17" value="고객&amp;nbsp;나이" style="ellipse;whiteSpace=wrap;html=1;" parent="1" vertex="1">
          <mxGeometry x="190" y="510" width="80" height="50" as="geometry" />
        </mxCell>
        <mxCell id="QFTJO6hWE16CWzXZC9yU-19" value="리뷰 관리" style="rounded=0;whiteSpace=wrap;html=1;" parent="1" vertex="1">
          <mxGeometry x="530" y="430" width="120" height="60" as="geometry" />
        </mxCell>
        <mxCell id="QFTJO6hWE16CWzXZC9yU-20" value="리뷰 ID" style="ellipse;whiteSpace=wrap;html=1;" parent="1" vertex="1">
          <mxGeometry x="630" y="560" width="80" height="50" as="geometry" />
        </mxCell>
        <mxCell id="QFTJO6hWE16CWzXZC9yU-21" value="제품 ID" style="ellipse;whiteSpace=wrap;html=1;" parent="1" vertex="1">
          <mxGeometry x="530" y="510" width="80" height="50" as="geometry" />
        </mxCell>
        <mxCell id="QFTJO6hWE16CWzXZC9yU-22" value="고객 ID" style="ellipse;whiteSpace=wrap;html=1;" parent="1" vertex="1">
          <mxGeometry x="660" y="450" width="80" height="50" as="geometry" />
        </mxCell>
        <mxCell id="QFTJO6hWE16CWzXZC9yU-23" value="평점" style="ellipse;whiteSpace=wrap;html=1;" parent="1" vertex="1">
          <mxGeometry x="680" y="510" width="80" height="50" as="geometry" />
        </mxCell>
        <mxCell id="QFTJO6hWE16CWzXZC9yU-24" value="리뷰 텍스트" style="ellipse;whiteSpace=wrap;html=1;" parent="1" vertex="1">
          <mxGeometry x="610" y="340" width="80" height="50" as="geometry" />
        </mxCell>
        <mxCell id="QFTJO6hWE16CWzXZC9yU-25" value="리뷰 날짜" style="ellipse;whiteSpace=wrap;html=1;" parent="1" vertex="1">
          <mxGeometry x="660" y="390" width="80" height="50" as="geometry" />
        </mxCell>
        <mxCell id="QFTJO6hWE16CWzXZC9yU-26" value="" style="endArrow=none;html=1;rounded=0;shape=link;" parent="1" source="QFTJO6hWE16CWzXZC9yU-27" target="QFTJO6hWE16CWzXZC9yU-19" edge="1">
          <mxGeometry width="50" height="50" relative="1" as="geometry">
            <mxPoint x="500" y="460" as="sourcePoint" />
            <mxPoint x="380" y="400" as="targetPoint" />
          </mxGeometry>
        </mxCell>
        <mxCell id="QFTJO6hWE16CWzXZC9yU-27" value="작성" style="rhombus;whiteSpace=wrap;html=1;" parent="1" vertex="1">
          <mxGeometry x="374" y="420" width="80" height="80" as="geometry" />
        </mxCell>
        <mxCell id="QFTJO6hWE16CWzXZC9yU-28" value="" style="endArrow=none;html=1;rounded=0;startArrow=ERone;startFill=0;" parent="1" source="QFTJO6hWE16CWzXZC9yU-1" target="QFTJO6hWE16CWzXZC9yU-27" edge="1">
          <mxGeometry width="50" height="50" relative="1" as="geometry">
            <mxPoint x="270" y="470" as="sourcePoint" />
            <mxPoint x="370" y="469.5" as="targetPoint" />
          </mxGeometry>
        </mxCell>
        <mxCell id="QFTJO6hWE16CWzXZC9yU-29" value="보고 및 분석" style="rhombus;whiteSpace=wrap;html=1;" parent="1" vertex="1">
          <mxGeometry x="470" y="180" width="80" height="80" as="geometry" />
        </mxCell>
        <mxCell id="QFTJO6hWE16CWzXZC9yU-30" value="" style="endArrow=none;html=1;rounded=0;entryX=0.5;entryY=0;entryDx=0;entryDy=0;" parent="1" source="QFTJO6hWE16CWzXZC9yU-29" target="QFTJO6hWE16CWzXZC9yU-19" edge="1">
          <mxGeometry width="50" height="50" relative="1" as="geometry">
            <mxPoint x="530" y="279" as="sourcePoint" />
            <mxPoint x="636" y="279" as="targetPoint" />
          </mxGeometry>
        </mxCell>
        <mxCell id="QFTJO6hWE16CWzXZC9yU-31" value="" style="endArrow=none;html=1;rounded=0;" parent="1" source="QFTJO6hWE16CWzXZC9yU-2" target="QFTJO6hWE16CWzXZC9yU-29" edge="1">
          <mxGeometry width="50" height="50" relative="1" as="geometry">
            <mxPoint x="310" y="150" as="sourcePoint" />
            <mxPoint x="580" y="490" as="targetPoint" />
          </mxGeometry>
        </mxCell>
        <mxCell id="QFTJO6hWE16CWzXZC9yU-32" value="" style="endArrow=none;html=1;rounded=0;" parent="1" source="QFTJO6hWE16CWzXZC9yU-2" target="QFTJO6hWE16CWzXZC9yU-3" edge="1">
          <mxGeometry width="50" height="50" relative="1" as="geometry">
            <mxPoint x="173" y="120" as="sourcePoint" />
            <mxPoint x="414" y="215" as="targetPoint" />
          </mxGeometry>
        </mxCell>
        <mxCell id="QFTJO6hWE16CWzXZC9yU-33" value="" style="endArrow=none;html=1;rounded=0;" parent="1" source="QFTJO6hWE16CWzXZC9yU-3" target="QFTJO6hWE16CWzXZC9yU-1" edge="1">
          <mxGeometry width="50" height="50" relative="1" as="geometry">
            <mxPoint x="230" y="150" as="sourcePoint" />
            <mxPoint x="230" y="290" as="targetPoint" />
          </mxGeometry>
        </mxCell>
        <mxCell id="QFTJO6hWE16CWzXZC9yU-34" value="제품 사용 통계" style="ellipse;whiteSpace=wrap;html=1;" parent="1" vertex="1">
          <mxGeometry x="500" y="130" width="80" height="50" as="geometry" />
        </mxCell>
        <mxCell id="QFTJO6hWE16CWzXZC9yU-35" value="고객 피드백" style="ellipse;whiteSpace=wrap;html=1;" parent="1" vertex="1">
          <mxGeometry x="560" y="190" width="80" height="50" as="geometry" />
        </mxCell>
        <mxCell id="QFTJO6hWE16CWzXZC9yU-37" value="" style="endArrow=none;html=1;rounded=0;" parent="1" source="QFTJO6hWE16CWzXZC9yU-5" target="QFTJO6hWE16CWzXZC9yU-2" edge="1">
          <mxGeometry width="50" height="50" relative="1" as="geometry">
            <mxPoint x="230" y="150" as="sourcePoint" />
            <mxPoint x="230" y="255" as="targetPoint" />
          </mxGeometry>
        </mxCell>
        <mxCell id="QFTJO6hWE16CWzXZC9yU-38" value="" style="endArrow=none;html=1;rounded=0;" parent="1" source="QFTJO6hWE16CWzXZC9yU-6" target="QFTJO6hWE16CWzXZC9yU-2" edge="1">
          <mxGeometry width="50" height="50" relative="1" as="geometry">
            <mxPoint x="240" y="160" as="sourcePoint" />
            <mxPoint x="240" y="265" as="targetPoint" />
          </mxGeometry>
        </mxCell>
        <mxCell id="QFTJO6hWE16CWzXZC9yU-39" value="" style="endArrow=none;html=1;rounded=0;" parent="1" source="QFTJO6hWE16CWzXZC9yU-7" target="QFTJO6hWE16CWzXZC9yU-2" edge="1">
          <mxGeometry width="50" height="50" relative="1" as="geometry">
            <mxPoint x="250" y="170" as="sourcePoint" />
            <mxPoint x="250" y="275" as="targetPoint" />
          </mxGeometry>
        </mxCell>
        <mxCell id="QFTJO6hWE16CWzXZC9yU-40" value="" style="endArrow=none;html=1;rounded=0;" parent="1" source="QFTJO6hWE16CWzXZC9yU-8" target="QFTJO6hWE16CWzXZC9yU-3" edge="1">
          <mxGeometry width="50" height="50" relative="1" as="geometry">
            <mxPoint x="260" y="180" as="sourcePoint" />
            <mxPoint x="260" y="285" as="targetPoint" />
          </mxGeometry>
        </mxCell>
        <mxCell id="QFTJO6hWE16CWzXZC9yU-41" value="" style="endArrow=none;html=1;rounded=0;" parent="1" source="QFTJO6hWE16CWzXZC9yU-9" target="QFTJO6hWE16CWzXZC9yU-3" edge="1">
          <mxGeometry width="50" height="50" relative="1" as="geometry">
            <mxPoint x="270" y="190" as="sourcePoint" />
            <mxPoint x="270" y="295" as="targetPoint" />
          </mxGeometry>
        </mxCell>
        <mxCell id="QFTJO6hWE16CWzXZC9yU-42" value="" style="endArrow=none;html=1;rounded=0;" parent="1" source="QFTJO6hWE16CWzXZC9yU-11" target="QFTJO6hWE16CWzXZC9yU-3" edge="1">
          <mxGeometry width="50" height="50" relative="1" as="geometry">
            <mxPoint x="290" y="400" as="sourcePoint" />
            <mxPoint x="280" y="305" as="targetPoint" />
          </mxGeometry>
        </mxCell>
        <mxCell id="QFTJO6hWE16CWzXZC9yU-43" value="" style="endArrow=none;html=1;rounded=0;" parent="1" source="QFTJO6hWE16CWzXZC9yU-12" target="QFTJO6hWE16CWzXZC9yU-3" edge="1">
          <mxGeometry width="50" height="50" relative="1" as="geometry">
            <mxPoint x="290" y="210" as="sourcePoint" />
            <mxPoint x="290" y="315" as="targetPoint" />
          </mxGeometry>
        </mxCell>
        <mxCell id="QFTJO6hWE16CWzXZC9yU-44" value="" style="endArrow=none;html=1;rounded=0;" parent="1" source="QFTJO6hWE16CWzXZC9yU-13" target="QFTJO6hWE16CWzXZC9yU-3" edge="1">
          <mxGeometry width="50" height="50" relative="1" as="geometry">
            <mxPoint x="300" y="220" as="sourcePoint" />
            <mxPoint x="300" y="325" as="targetPoint" />
          </mxGeometry>
        </mxCell>
        <mxCell id="QFTJO6hWE16CWzXZC9yU-45" value="" style="endArrow=none;html=1;rounded=0;" parent="1" source="QFTJO6hWE16CWzXZC9yU-1" target="QFTJO6hWE16CWzXZC9yU-16" edge="1">
          <mxGeometry width="50" height="50" relative="1" as="geometry">
            <mxPoint x="310" y="230" as="sourcePoint" />
            <mxPoint x="310" y="335" as="targetPoint" />
          </mxGeometry>
        </mxCell>
        <mxCell id="QFTJO6hWE16CWzXZC9yU-46" value="" style="endArrow=none;html=1;rounded=0;" parent="1" source="QFTJO6hWE16CWzXZC9yU-1" target="QFTJO6hWE16CWzXZC9yU-14" edge="1">
          <mxGeometry width="50" height="50" relative="1" as="geometry">
            <mxPoint x="320" y="240" as="sourcePoint" />
            <mxPoint x="320" y="345" as="targetPoint" />
          </mxGeometry>
        </mxCell>
        <mxCell id="QFTJO6hWE16CWzXZC9yU-47" value="" style="endArrow=none;html=1;rounded=0;entryX=1;entryY=0;entryDx=0;entryDy=0;" parent="1" source="QFTJO6hWE16CWzXZC9yU-1" target="QFTJO6hWE16CWzXZC9yU-15" edge="1">
          <mxGeometry width="50" height="50" relative="1" as="geometry">
            <mxPoint x="330" y="250" as="sourcePoint" />
            <mxPoint x="330" y="355" as="targetPoint" />
          </mxGeometry>
        </mxCell>
        <mxCell id="QFTJO6hWE16CWzXZC9yU-48" value="" style="endArrow=none;html=1;rounded=0;" parent="1" source="QFTJO6hWE16CWzXZC9yU-1" target="QFTJO6hWE16CWzXZC9yU-17" edge="1">
          <mxGeometry width="50" height="50" relative="1" as="geometry">
            <mxPoint x="340" y="260" as="sourcePoint" />
            <mxPoint x="340" y="365" as="targetPoint" />
          </mxGeometry>
        </mxCell>
        <mxCell id="QFTJO6hWE16CWzXZC9yU-49" value="" style="endArrow=none;html=1;rounded=0;" parent="1" source="QFTJO6hWE16CWzXZC9yU-34" target="QFTJO6hWE16CWzXZC9yU-29" edge="1">
          <mxGeometry width="50" height="50" relative="1" as="geometry">
            <mxPoint x="350" y="270" as="sourcePoint" />
            <mxPoint x="350" y="375" as="targetPoint" />
          </mxGeometry>
        </mxCell>
        <mxCell id="QFTJO6hWE16CWzXZC9yU-50" value="" style="endArrow=none;html=1;rounded=0;" parent="1" source="QFTJO6hWE16CWzXZC9yU-35" target="QFTJO6hWE16CWzXZC9yU-29" edge="1">
          <mxGeometry width="50" height="50" relative="1" as="geometry">
            <mxPoint x="360" y="280" as="sourcePoint" />
            <mxPoint x="360" y="385" as="targetPoint" />
          </mxGeometry>
        </mxCell>
        <mxCell id="QFTJO6hWE16CWzXZC9yU-51" value="" style="endArrow=none;html=1;rounded=0;" parent="1" source="QFTJO6hWE16CWzXZC9yU-19" target="QFTJO6hWE16CWzXZC9yU-24" edge="1">
          <mxGeometry width="50" height="50" relative="1" as="geometry">
            <mxPoint x="370" y="290" as="sourcePoint" />
            <mxPoint x="370" y="395" as="targetPoint" />
          </mxGeometry>
        </mxCell>
        <mxCell id="QFTJO6hWE16CWzXZC9yU-52" value="" style="endArrow=none;html=1;rounded=0;" parent="1" source="QFTJO6hWE16CWzXZC9yU-19" target="QFTJO6hWE16CWzXZC9yU-25" edge="1">
          <mxGeometry width="50" height="50" relative="1" as="geometry">
            <mxPoint x="380" y="300" as="sourcePoint" />
            <mxPoint x="380" y="405" as="targetPoint" />
          </mxGeometry>
        </mxCell>
        <mxCell id="QFTJO6hWE16CWzXZC9yU-53" value="" style="endArrow=none;html=1;rounded=0;" parent="1" source="QFTJO6hWE16CWzXZC9yU-19" target="QFTJO6hWE16CWzXZC9yU-22" edge="1">
          <mxGeometry width="50" height="50" relative="1" as="geometry">
            <mxPoint x="390" y="310" as="sourcePoint" />
            <mxPoint x="390" y="415" as="targetPoint" />
          </mxGeometry>
        </mxCell>
        <mxCell id="QFTJO6hWE16CWzXZC9yU-54" value="" style="endArrow=none;html=1;rounded=0;" parent="1" source="QFTJO6hWE16CWzXZC9yU-19" target="QFTJO6hWE16CWzXZC9yU-23" edge="1">
          <mxGeometry width="50" height="50" relative="1" as="geometry">
            <mxPoint x="630" y="470" as="sourcePoint" />
            <mxPoint x="400" y="425" as="targetPoint" />
          </mxGeometry>
        </mxCell>
        <mxCell id="QFTJO6hWE16CWzXZC9yU-55" value="" style="endArrow=none;html=1;rounded=0;" parent="1" source="QFTJO6hWE16CWzXZC9yU-19" target="QFTJO6hWE16CWzXZC9yU-21" edge="1">
          <mxGeometry width="50" height="50" relative="1" as="geometry">
            <mxPoint x="410" y="330" as="sourcePoint" />
            <mxPoint x="410" y="435" as="targetPoint" />
          </mxGeometry>
        </mxCell>
        <mxCell id="QFTJO6hWE16CWzXZC9yU-56" value="" style="endArrow=none;html=1;rounded=0;" parent="1" source="QFTJO6hWE16CWzXZC9yU-19" target="QFTJO6hWE16CWzXZC9yU-20" edge="1">
          <mxGeometry width="50" height="50" relative="1" as="geometry">
            <mxPoint x="420" y="340" as="sourcePoint" />
            <mxPoint x="420" y="445" as="targetPoint" />
          </mxGeometry>
        </mxCell>
      </root>
    </mxGraphModel>
  </diagram>
</mxfile>
